<?xml version="1.0" encoding="utf-8"?>
<svg version="1.0" width="300.000000pt" height="304.000000pt" viewBox="0 0 300.000000 304.000000" preserveAspectRatio="xMidYMid meet" xmlns="http://www.w3.org/2000/svg">
  <g transform="translate(0.000000,304.000000) scale(0.100000,-0.100000)" fill="#000000" stroke="none">
    <path d="M1370 3007 c-3 -2 -30 -7 -60 -10 -306 -33 -621 -188 -855 -422 -238 -238 -384 -533 -426 -861 -15 -120 -6 -380 16 -484 96 -446 388 -826 790 -1027 165 -83 313 -126 518 -150 139 -16 155 -16 295 0 204 24 352 67 517 150 405 203 695 583 792 1037 26 121 26 449 0 570 -64 300 -201 554 -412 765 -229 229 -476 355 -825 420 -45 8 -343 19 -350 12z m355 -46 c463 -71 879 -385 1087 -821 49 -101 104 -276 123 -384 27 -157 17 -398 -24 -577 -31 -138 -119 -332 -213 -472 -79 -117 -264 -303 -378 -379 -402 -266 -878 -327 -1315 -166 -411 152 -728 474 -877 893 -25 70 -58 203 -64 260 -2 17 -6 40 -9 53 -12 48 -5 281 10 372 55 325 187 586 409 806 145 143 228 203 401 288 217 106 415 148 655 141 74 -3 162 -9 195 -14z"/>
    <path d="M546 2271 c-14 -15 -16 -34 -13 -102 l3 -84 2 81 c1 60 6 85 18 95 9 7 49 14 96 15 111 4 112 14 1 14 -75 0 -93 -3 -107 -19z"/>
    <path d="M813 2278 c35 -8 52 -7 60 1 8 8 -5 11 -49 10 l-59 -1 48 -10z"/>
    <path d="M910 2280 c0 -9 139 -4 149 6 2 2 -30 4 -72 4 -44 0 -77 -4 -77 -10z"/>
    <path d="M1140 2262 c0 -5 7 -9 15 -10 8 -1 22 -3 30 -4 8 -1 15 -5 15 -10 0 -4 8 -8 18 -8 9 0 26 -7 36 -15 10 -8 23 -12 27 -9 5 3 9 0 9 -6 0 -6 4 -9 8 -6 5 3 16 -4 25 -15 9 -10 24 -19 32 -19 10 0 13 -5 9 -12 -4 -7 -4 -10 0 -6 11 9 134 -119 151 -158 8 -19 23 -51 32 -71 10 -21 18 -40 18 -43 1 -3 4 -12 8 -20 31 -76 36 -230 12 -325 -52 -197 -198 -349 -412 -427 -53 -19 -81 -21 -331 -23 -150 -1 -275 -5 -279 -9 -10 -9 478 -10 534 0 53 9 108 26 147 45 22 10 46 19 53 19 7 0 13 5 13 10 0 6 7 10 14 10 22 0 163 139 193 190 75 126 104 230 97 348 -16 263 -177 487 -408 565 -56 19 -66 20 -66 9z"/>
    <path d="M579 2234 c6 -3 8 -11 5 -17 -2 -7 6 -13 21 -13 29 -2 33 11 8 20 -35 12 -43 14 -34 10z"/>
    <path d="M1754 1990 c-24 -9 -39 -28 -30 -37 3 -3 12 2 21 11 9 9 29 16 43 16 15 0 53 0 86 0 32 0 70 -6 85 -13 l26 -12 5 -445 5 -445 3 446 c1 343 -1 449 -10 462 -10 14 -33 18 -113 21 -55 2 -110 0 -121 -4z"/>
    <path d="M1150 1962 c14 -9 52 -42 84 -72 32 -30 54 -46 48 -35 -20 38 -123 126 -147 124 -5 0 1 -8 15 -17z"/>
    <path d="M603 1895 c0 -44 2 -61 4 -37 2 23 2 59 0 80 -2 20 -4 1 -4 -43z"/>
    <path d="M1469 1918 c22 -55 40 -92 41 -81 0 15 -38 103 -44 103 -3 0 -2 -10 3 -22z"/>
    <path d="M1910 1931 c0 -5 -17 -12 -37 -14 l-38 -4 42 -1 c41 -2 64 10 43 23 -5 3 -10 2 -10 -4z"/>
    <path d="M1949 1928 c-3 -44 1 -151 5 -156 3 -3 6 34 6 81 0 48 -2 87 -5 87 -3 0 -5 -6 -6 -12z"/>
    <path d="M531 1855 c0 -34 3 -45 9 -35 4 9 5 31 0 50 -8 34 -8 33 -9 -15z"/>
    <path d="M530 1617 l5 -102 3 94 c1 52 -1 98 -5 102 -4 5 -6 -38 -3 -94z"/>
    <path d="M1520 1566 c0 -8 5 -18 10 -21 14 -9 12 -45 -2 -42 -9 1 -12 -8 -11 -28 1 -16 -1 -25 -5 -18 -4 7 -12 9 -17 5 -17 -12 -45 -60 -45 -77 0 -9 -25 -39 -55 -67 -30 -27 -55 -54 -55 -59 0 -5 16 9 36 31 20 22 42 40 48 40 7 0 18 12 25 28 36 77 45 92 53 92 5 0 6 -10 3 -21 -5 -14 -3 -19 3 -15 6 3 18 30 28 59 9 28 19 58 22 66 3 9 1 12 -6 7 -11 -6 -17 5 -13 27 0 4 -3 7 -9 7 -5 0 -10 -6 -10 -14z"/>
    <path d="M1790 1520 c0 -29 2 -51 4 -49 8 8 10 88 3 95 -4 4 -7 -17 -7 -46z"/>
    <path d="M1948 1525 c-2 -25 0 -53 4 -63 3 -9 7 11 7 46 1 72 -5 82 -11 17z"/>
    <path d="M803 1460 c0 -41 2 -58 4 -37 2 20 2 54 0 75 -2 20 -4 3 -4 -38z"/>
    <path d="M1290 1498 c0 -15 -3 -19 -8 -10 -6 9 -12 6 -22 -12 -14 -28 -75 -80 -114 -97 -14 -7 -23 -16 -19 -22 4 -6 -2 -8 -15 -5 -14 4 -20 2 -16 -4 4 -6 -2 -8 -16 -3 -15 5 -20 4 -16 -4 10 -16 25 -14 83 13 77 36 180 144 153 161 -6 3 -10 -4 -10 -17z"/>
    <path d="M566 1318 c9 -57 14 -61 14 -10 0 22 -5 44 -10 47 -7 4 -8 -8 -4 -37z"/>
    <path d="M533 1275 c0 -38 2 -53 4 -32 2 20 2 52 0 70 -2 17 -4 1 -4 -38z"/>
    <path d="M797 1328 c2 -5 63 -8 135 -8 72 0 128 3 124 8 -4 4 -65 7 -136 7 -70 0 -126 -3 -123 -7z"/>
    <path d="M602 1217 c-1 -45 -7 -74 -17 -84 -19 -18 -11 -33 18 -33 20 0 20 0 1 15 -17 13 -15 15 36 16 50 2 51 3 13 6 l-42 4 -4 72 -3 72 -2 -68z"/>
    <path d="M1235 1199 c-36 -22 -26 -25 14 -4 55 28 40 1 -16 -31 -32 -19 -52 -34 -46 -34 20 0 137 64 124 68 -6 2 -9 7 -6 12 9 15 -40 7 -70 -11z"/>
    <path d="M530 1142 c0 -33 4 -63 8 -66 9 -5 4 115 -4 123 -2 2 -4 -23 -4 -57z"/>
    <path d="M1112 1159 c-13 -5 -62 -12 -108 -15 -46 -4 -84 -10 -84 -13 0 -8 153 4 193 14 15 4 27 11 27 16 0 5 -1 9 -2 8 -2 0 -14 -4 -26 -10z"/>
    <path d="M1942 1130 c0 -14 4 -38 8 -55 l8 -30 0 30 c0 17 -4 41 -8 55 l-8 25 0 -25z"/>
    <path d="M827 1131 c61 -10 64 -21 7 -23 -39 -1 -42 -2 -15 -5 19 -3 46 -2 60 2 25 6 25 7 7 21 -11 8 -38 13 -60 13 l-41 -2 42 -6z"/>
    <path d="M1107 1124 c-3 -4 -21 -10 -39 -15 -31 -8 -31 -8 -3 -4 17 2 46 8 65 13 30 9 32 10 9 11 -14 1 -28 -2 -32 -5z"/>
    <path d="M1766 1095 c-3 -9 -5 -40 -4 -68 l1 -52 7 65 c7 70 6 80 -4 55z"/>
    <path d="M1996 1035 c3 -6 37 -8 87 -6 85 5 77 8 -29 13 -38 2 -60 -1 -58 -7z"/>
    <path d="M2247 1042 c-46 -2 -75 -7 -72 -12 8 -13 145 -13 145 0 0 6 5 10 11 10 5 0 7 -5 3 -11 -5 -8 7 -10 40 -7 60 6 86 -11 86 -57 0 -19 5 -37 12 -41 8 -5 9 -2 5 10 -4 10 -7 30 -7 45 0 64 -25 71 -223 63z"/>
    <path d="M2467 883 c-4 -3 -7 -25 -7 -48 0 -37 -4 -44 -27 -54 -19 -7 -139 -10 -365 -8 -185 1 -331 -1 -325 -5 7 -4 164 -8 349 -8 384 1 372 -2 381 83 5 49 4 51 -6 40z"/>
    <path d="M1710 832 c0 -30 8 -45 20 -37 9 6 0 65 -11 65 -5 0 -9 -13 -9 -28z"/>
    <path d="M1757 836 c-9 -24 18 -37 70 -33 l48 3 -55 2 c-33 2 -50 6 -42 11 10 6 10 10 -1 20 -12 9 -16 8 -20 -3z"/>
    <path d="M2320 840 c25 -4 49 -5 53 -3 5 3 17 -3 27 -12 12 -11 20 -13 25 -6 3 6 -1 11 -9 11 -9 0 -16 5 -16 10 0 6 -27 9 -62 9 -63 -2 -63 -2 -18 -9z"/>
  </g>
  <path style="fill: rgb(216, 216, 216); stroke: rgb(0, 0, 0); fill-opacity: 0;" d="M 79.76 170.856 L 80.521 104.265 L 104.494 104.645 L 113.246 106.929 L 126.184 116.822 L 131.131 124.052 L 133.033 132.804 L 133.414 143.839 L 130.37 151.449 L 126.564 158.299 L 118.954 165.529 L 109.06 170.856 L 99.167 171.998 L 79.76 170.856 Z"/>
  <path style="fill: rgb(216, 216, 216); stroke: rgb(0, 0, 0); fill-opacity: 0;" d="M 62.257 84.097 L 61.496 191.404 L 91.937 190.643 L 112.866 188.36 L 127.325 182.652 L 137.219 175.042 L 147.112 162.485 L 152.82 152.971 L 155.484 140.414 L 151.679 124.433 L 146.351 109.212 L 133.414 94.752 L 115.149 86.38 L 98.406 84.097 L 62.257 84.097 Z"/>
  <path style="fill: rgb(216, 216, 216); stroke: rgb(0, 0, 0); fill-opacity: 0;" d="M 53.124 80.292 L 53.505 197.873 L 60.354 197.492 L 110.963 197.112 L 131.892 189.501 L 146.732 175.042 L 156.625 159.06 L 161.192 135.087 L 156.245 111.495 L 143.307 93.61 L 124.662 81.814 L 109.441 75.345 L 57.69 76.106 L 53.124 80.292 Z"/>
  <path style="fill: rgb(216, 216, 216); stroke: rgb(0, 0, 0); fill-opacity: 0;" d="M 172.227 226.031 L 173.368 106.168 L 197.721 105.787 L 198.863 201.298 L 244.906 200.537 L 246.428 225.27 L 172.227 226.031 Z"/>
  <path style="fill: rgb(216, 216, 216); stroke: rgb(0, 0, 0); fill-opacity: 0;" d="M 178.696 112.256 L 177.173 222.987 L 241.862 222.226 L 241.101 205.864 L 195.058 206.244 L 193.916 111.495 L 178.696 112.256 Z"/>
</svg>