<?xml version="1.0" standalone="no"?>
<!DOCTYPE svg PUBLIC "-//W3C//DTD SVG 20010904//EN"
 "http://www.w3.org/TR/2001/REC-SVG-20010904/DTD/svg10.dtd">
<svg version="1.0" xmlns="http://www.w3.org/2000/svg"
 width="300.000000pt" height="300.000000pt" viewBox="0 0 300.000000 300.000000"
 preserveAspectRatio="xMidYMid meet">
<metadata>
Created by potrace 1.10, written by Peter Selinger 2001-2011
</metadata>
<g transform="translate(0.000000,300.000000) scale(0.100000,-0.100000)"
fill="#000000" stroke="none">
<path d="M499 2726 c-103 -28 -190 -103 -238 -205 l-26 -56 0 -965 0 -965 27
-57 c37 -79 98 -142 177 -181 l66 -32 995 0 995 0 63 29 c81 37 162 123 189
198 17 50 18 105 18 1008 0 930 -1 956 -20 1009 -28 76 -100 153 -183 193
l-67 33 -975 2 c-752 1 -985 -1 -1021 -11z m2021 -36 c117 -49 183 -127 208
-246 8 -34 11 -349 11 -963 0 -892 0 -914 -20 -967 -32 -85 -87 -147 -166
-186 l-68 -33 -985 0 -985 0 -55 26 c-95 45 -165 127 -185 219 -14 60 -9 1889
5 1940 24 88 97 164 198 205 l57 24 975 -2 c837 -2 980 -4 1010 -17z"/>
<path d="M852 2244 c-150 -74 -177 -269 -52 -377 23 -20 64 -44 91 -53 55 -20
50 -29 -18 -33 -27 -1 -58 -10 -75 -22 l-28 -20 -1 -172 c-1 -95 -3 -294 -4
-443 -2 -149 1 -291 5 -315 13 -72 30 -79 186 -79 126 0 134 1 161 24 l28 24
3 460 c2 284 -1 469 -7 485 -14 36 -50 57 -105 61 -26 2 -49 6 -52 8 -3 3 18
14 47 24 58 21 123 80 145 132 17 41 18 116 2 163 -17 51 -44 85 -95 120 -37
26 -58 33 -112 36 -56 3 -74 0 -119 -23z m204 -30 c22 -12 53 -41 72 -68 26
-40 32 -58 32 -102 0 -70 -17 -110 -67 -155 -86 -77 -222 -68 -296 20 -84 100
-52 246 67 306 61 31 129 31 192 -1z m46 -481 c17 -15 18 -43 18 -472 0 -397
-2 -459 -16 -479 -14 -21 -22 -22 -148 -22 -89 0 -136 4 -144 12 -17 17 -17
949 0 966 8 8 54 12 142 12 106 0 133 -3 148 -17z"/>
<path d="M1760 1786 c-25 -6 -67 -24 -94 -39 l-48 -27 -28 30 -28 30 -141 0
c-141 0 -142 0 -166 -26 l-25 -27 0 -472 0 -472 26 -27 c26 -26 29 -26 164
-26 198 0 184 -25 190 333 5 307 6 312 68 370 53 51 143 36 189 -31 16 -24 19
-58 23 -325 l5 -299 28 -24 c27 -23 35 -24 162 -24 73 0 141 3 150 6 9 4 24
23 34 43 16 32 17 64 15 316 -4 313 -14 412 -54 500 -39 86 -139 172 -224 192
-46 11 -203 10 -246 -1z m250 -36 c55 -15 126 -65 160 -111 16 -23 40 -72 52
-108 21 -62 22 -88 26 -404 2 -252 0 -342 -9 -353 -18 -22 -275 -20 -301 3
-17 15 -18 38 -18 302 0 278 -1 288 -22 331 -33 64 -67 85 -138 85 -66 0 -99
-18 -137 -75 -38 -55 -43 -96 -43 -372 0 -254 -1 -268 -19 -278 -28 -15 -274
-13 -289 2 -17 17 -17 949 0 966 17 17 279 17 296 0 7 -7 12 -34 12 -60 l0
-48 36 39 c41 46 103 79 171 91 55 10 171 5 223 -10z"/>
</g>
</svg>
